<mxfile host="app.diagrams.net" modified="2021-01-04T16:51:22.326Z" agent="5.0 (Windows NT 10.0; Win64; x64) AppleWebKit/537.36 (KHTML, like Gecko) Chrome/87.0.4280.88 Safari/537.36" etag="qpVvhXZgbhjNc1-QB7ao" version="14.1.8" type="github">
  <diagram id="qBX3JXkrKmqneZjwWQPC" name="Page-1">
    <mxGraphModel dx="1114" dy="1646" grid="1" gridSize="10" guides="1" tooltips="1" connect="1" arrows="1" fold="1" page="1" pageScale="1" pageWidth="827" pageHeight="1169" math="0" shadow="0">
      <root>
        <mxCell id="0" />
        <mxCell id="1" parent="0" />
        <mxCell id="i2d7C95oHbpWlVdKeCio-6" value="" style="edgeStyle=orthogonalEdgeStyle;rounded=0;orthogonalLoop=1;jettySize=auto;html=1;" edge="1" parent="1" source="i2d7C95oHbpWlVdKeCio-4">
          <mxGeometry relative="1" as="geometry">
            <mxPoint x="270" y="420" as="targetPoint" />
          </mxGeometry>
        </mxCell>
        <mxCell id="i2d7C95oHbpWlVdKeCio-4" value="Startup" style="rounded=0;whiteSpace=wrap;html=1;" vertex="1" parent="1">
          <mxGeometry x="40" y="390" width="120" height="60" as="geometry" />
        </mxCell>
        <mxCell id="i2d7C95oHbpWlVdKeCio-9" style="edgeStyle=orthogonalEdgeStyle;rounded=0;orthogonalLoop=1;jettySize=auto;html=1;" edge="1" parent="1" source="i2d7C95oHbpWlVdKeCio-7" target="i2d7C95oHbpWlVdKeCio-8">
          <mxGeometry relative="1" as="geometry" />
        </mxCell>
        <mxCell id="i2d7C95oHbpWlVdKeCio-7" value="Repeat up to 20 times a day, otherwise as usual" style="rounded=0;whiteSpace=wrap;html=1;" vertex="1" parent="1">
          <mxGeometry x="270" y="390" width="120" height="60" as="geometry" />
        </mxCell>
        <mxCell id="i2d7C95oHbpWlVdKeCio-11" style="edgeStyle=orthogonalEdgeStyle;rounded=0;orthogonalLoop=1;jettySize=auto;html=1;" edge="1" parent="1" source="i2d7C95oHbpWlVdKeCio-8" target="i2d7C95oHbpWlVdKeCio-10">
          <mxGeometry relative="1" as="geometry" />
        </mxCell>
        <mxCell id="i2d7C95oHbpWlVdKeCio-8" value="Reset each day code" style="rounded=0;whiteSpace=wrap;html=1;" vertex="1" parent="1">
          <mxGeometry x="440" y="390" width="120" height="60" as="geometry" />
        </mxCell>
        <mxCell id="i2d7C95oHbpWlVdKeCio-13" value="" style="edgeStyle=orthogonalEdgeStyle;rounded=0;orthogonalLoop=1;jettySize=auto;html=1;" edge="1" parent="1" source="i2d7C95oHbpWlVdKeCio-10" target="i2d7C95oHbpWlVdKeCio-12">
          <mxGeometry relative="1" as="geometry" />
        </mxCell>
        <mxCell id="i2d7C95oHbpWlVdKeCio-10" value="Log into Twitter" style="rounded=0;whiteSpace=wrap;html=1;" vertex="1" parent="1">
          <mxGeometry x="630" y="380" width="120" height="80" as="geometry" />
        </mxCell>
        <mxCell id="i2d7C95oHbpWlVdKeCio-15" value="" style="edgeStyle=orthogonalEdgeStyle;rounded=0;orthogonalLoop=1;jettySize=auto;html=1;" edge="1" parent="1" source="i2d7C95oHbpWlVdKeCio-12" target="i2d7C95oHbpWlVdKeCio-14">
          <mxGeometry relative="1" as="geometry" />
        </mxCell>
        <mxCell id="i2d7C95oHbpWlVdKeCio-12" value="Get 5 Trends" style="rounded=0;whiteSpace=wrap;html=1;" vertex="1" parent="1">
          <mxGeometry x="830" y="380" width="120" height="80" as="geometry" />
        </mxCell>
        <mxCell id="i2d7C95oHbpWlVdKeCio-17" value="" style="edgeStyle=orthogonalEdgeStyle;rounded=0;orthogonalLoop=1;jettySize=auto;html=1;" edge="1" parent="1" source="i2d7C95oHbpWlVdKeCio-14" target="i2d7C95oHbpWlVdKeCio-16">
          <mxGeometry relative="1" as="geometry" />
        </mxCell>
        <mxCell id="i2d7C95oHbpWlVdKeCio-14" value="15 Worldwirde&amp;nbsp;https://getdaytrends.com/" style="rounded=0;whiteSpace=wrap;html=1;" vertex="1" parent="1">
          <mxGeometry x="1030" y="380" width="120" height="80" as="geometry" />
        </mxCell>
        <mxCell id="i2d7C95oHbpWlVdKeCio-19" style="edgeStyle=orthogonalEdgeStyle;rounded=0;orthogonalLoop=1;jettySize=auto;html=1;entryX=0.5;entryY=1;entryDx=0;entryDy=0;" edge="1" parent="1" source="i2d7C95oHbpWlVdKeCio-16" target="i2d7C95oHbpWlVdKeCio-18">
          <mxGeometry relative="1" as="geometry" />
        </mxCell>
        <mxCell id="i2d7C95oHbpWlVdKeCio-24" style="edgeStyle=orthogonalEdgeStyle;rounded=0;orthogonalLoop=1;jettySize=auto;html=1;" edge="1" parent="1" source="i2d7C95oHbpWlVdKeCio-16" target="i2d7C95oHbpWlVdKeCio-22">
          <mxGeometry relative="1" as="geometry" />
        </mxCell>
        <mxCell id="i2d7C95oHbpWlVdKeCio-16" value="Search on twitter" style="whiteSpace=wrap;html=1;rounded=0;" vertex="1" parent="1">
          <mxGeometry x="1230" y="390" width="120" height="60" as="geometry" />
        </mxCell>
        <mxCell id="i2d7C95oHbpWlVdKeCio-21" value="" style="edgeStyle=orthogonalEdgeStyle;rounded=0;orthogonalLoop=1;jettySize=auto;html=1;" edge="1" parent="1" source="i2d7C95oHbpWlVdKeCio-18" target="i2d7C95oHbpWlVdKeCio-20">
          <mxGeometry relative="1" as="geometry" />
        </mxCell>
        <mxCell id="i2d7C95oHbpWlVdKeCio-18" value="Find Links" style="rounded=0;whiteSpace=wrap;html=1;" vertex="1" parent="1">
          <mxGeometry x="1230" y="270" width="120" height="60" as="geometry" />
        </mxCell>
        <mxCell id="i2d7C95oHbpWlVdKeCio-23" style="edgeStyle=orthogonalEdgeStyle;rounded=0;orthogonalLoop=1;jettySize=auto;html=1;entryX=0;entryY=0.5;entryDx=0;entryDy=0;" edge="1" parent="1" source="i2d7C95oHbpWlVdKeCio-20" target="i2d7C95oHbpWlVdKeCio-22">
          <mxGeometry relative="1" as="geometry" />
        </mxCell>
        <mxCell id="i2d7C95oHbpWlVdKeCio-20" value="Click on up to three" style="rounded=0;whiteSpace=wrap;html=1;" vertex="1" parent="1">
          <mxGeometry x="1440" y="270" width="120" height="60" as="geometry" />
        </mxCell>
        <mxCell id="i2d7C95oHbpWlVdKeCio-22" value="End Programm" style="rounded=0;whiteSpace=wrap;html=1;" vertex="1" parent="1">
          <mxGeometry x="1520" y="390" width="120" height="60" as="geometry" />
        </mxCell>
      </root>
    </mxGraphModel>
  </diagram>
</mxfile>
